<svg viewBox="0 0 32 32" xmlns="http://www.w3.org/2000/svg" fill="none">
  <defs>
    <radialGradient id="aura" cx="50%" cy="38%" r="62%">
      <stop offset="0%" stop-color="#FDE68A" stop-opacity="0.92" />
      <stop offset="42%" stop-color="#34D399" stop-opacity="0.4" />
      <stop offset="100%" stop-color="#38BDF8" stop-opacity="0" />
    </radialGradient>
    <linearGradient id="path" x1="8" y1="24" x2="24" y2="8" gradientUnits="userSpaceOnUse">
      <stop stop-color="#38BDF8" />
      <stop offset="0.52" stop-color="#34D399" />
      <stop offset="1" stop-color="#FBBF24" />
    </linearGradient>
  </defs>
  <rect width="32" height="32" rx="8" fill="#0F172A" />
  <rect x="0.5" y="0.5" width="31" height="31" rx="7.5" stroke="#334155" />
  <circle cx="16" cy="14" r="13" fill="url(#aura)" />
  <path d="M8.5 22.5 C10.75 17.5 13.6 15.35 16 14 C18.9 12.35 21.55 10.6 23.5 7.5" stroke="url(#path)" stroke-width="2.8" stroke-linecap="round" />
  <path d="M16 14 C18.2 16.15 20.1 18.5 23.4 20.7" stroke="#34D399" stroke-width="2.2" stroke-linecap="round" opacity="0.92" />
  <circle cx="8.5" cy="22.5" r="2.5" fill="#38BDF8" />
  <circle cx="16" cy="14" r="3.1" fill="#FDE68A" stroke="#0F172A" stroke-width="1.2" />
  <circle cx="23.5" cy="7.5" r="2.45" fill="#FBBF24" />
  <circle cx="23.4" cy="20.7" r="2.35" fill="#34D399" />
  <path d="M12.3 7.6 L13.1 9.4 L14.9 10.2 L13.1 11 L12.3 12.8 L11.5 11 L9.7 10.2 L11.5 9.4 Z" fill="#FDE68A" />
</svg>
